<svg xmlns="http://www.w3.org/2000/svg" viewBox="0 0 37.6113 8.16071" style="fill: #0092ca;">
						    <path class="cls-1" d="M11.227,2.20618a4.07425,4.07425,0,0,1,4.63772,1.4761,3.4625,3.4625,0,0,1,.30135.49544c-.04087.18387-.08683.36774-.143.54651A4.10743,4.10743,0,0,1,11.3343,7.4568a3.41941,3.41941,0,0,0,2.92156.59759,3.83933,3.83933,0,0,0,2.38525-1.98175,4.05476,4.05476,0,0,1-2.76832,3.85625A4.08972,4.08972,0,0,1,8.68856,7.3904,4.0747,4.0747,0,0,1,11.227,2.20618Zm33.4804,4.42319h1.36884v-.1328L44.77384,3.21238H43.28242L41.98,6.49657v.1328h1.36373l.143-.39329h1.0726ZM44.023,4.51482l.20431.84786h-.3984Zm-2.53337,2.1503,1.19007-3.28419V3.25324h-1.3433l-.2656.75082-.25538,1.236h-.01021l-.25538-1.236-.26049-.75082H38.941v.12769l1.19518,3.28419Zm-4.745-1.74169a.6963.6963,0,0,1,.05619-.286.57628.57628,0,0,1,.14812-.19409.50414.50414,0,0,1,.20431-.097.53013.53013,0,0,1,.21962,0,.5047.5047,0,0,1,.34732.29113.622.622,0,0,1,.06129.286.60738.60738,0,0,1-.06129.286.51768.51768,0,0,1-.14812.19409.60164.60164,0,0,1-.1992.09705.53047.53047,0,0,1-.21962,0,.50415.50415,0,0,1-.20431-.09705.55515.55515,0,0,1-.14812-.189.72158.72158,0,0,1-.05619-.29113Zm-1.30244.00511a1.90227,1.90227,0,0,0,.10216.63845,1.70744,1.70744,0,0,0,.28092.49033,1.57611,1.57611,0,0,0,.4086.35242,1.92683,1.92683,0,0,0,.49544.20942,2.15355,2.15355,0,0,0,.54141.06639,2.08854,2.08854,0,0,0,.5363-.0715,1.961,1.961,0,0,0,.50055-.20941,1.79785,1.79785,0,0,0,.4086-.35243,1.64588,1.64588,0,0,0,.27581-.49033,1.92351,1.92351,0,0,0,0-1.26669,1.55456,1.55456,0,0,0-.27581-.49544,1.701,1.701,0,0,0-.4086-.35753,1.96067,1.96067,0,0,0-.50055-.20941,1.88686,1.88686,0,0,0-.5363-.07151,1.94718,1.94718,0,0,0-.54141.07151,1.9268,1.9268,0,0,0-.49544.20941,1.7976,1.7976,0,0,0-.4086.35243,1.73607,1.73607,0,0,0-.28092.49543,1.92407,1.92407,0,0,0-.10216.63846Zm-2.27288.36774L34.104,6.62937h1.10325V3.25324H33.89974v.618l.08172.70485L33.057,3.25324H31.95374V6.62937H33.2715V6.0471Zm-3.77964-.37285a.69614.69614,0,0,1,.05619-.286.57628.57628,0,0,1,.14812-.19409.50416.50416,0,0,1,.2043-.097.53.53,0,0,1,.21963,0,.5047.5047,0,0,1,.34732.29113.69485.69485,0,0,1,.06129.286.67663.67663,0,0,1-.06129.286.51778.51778,0,0,1-.14812.19409.60164.60164,0,0,1-.1992.09705.53036.53036,0,0,1-.21963,0,.50418.50418,0,0,1-.2043-.09705.55515.55515,0,0,1-.14812-.189.72141.72141,0,0,1-.05619-.29113Zm-1.30244.00511a1.90252,1.90252,0,0,0,.10215.63845,1.597,1.597,0,0,0,.28092.49033,1.57615,1.57615,0,0,0,.40861.35242,1.85413,1.85413,0,0,0,.49544.20942,2.13992,2.13992,0,0,0,1.07771-.00511,1.85457,1.85457,0,0,0,.49544-.20941,1.82376,1.82376,0,0,0,.41371-.35243,1.64588,1.64588,0,0,0,.27581-.49033,2.0143,2.0143,0,0,0,0-1.26669,1.55456,1.55456,0,0,0-.27581-.49544,1.72453,1.72453,0,0,0-.41371-.35753,1.85424,1.85424,0,0,0-.49544-.20941,2.06595,2.06595,0,0,0-1.07771,0,1.85411,1.85411,0,0,0-.49544.20941,1.79765,1.79765,0,0,0-.40861.35243,1.62334,1.62334,0,0,0-.28092.49543,1.92433,1.92433,0,0,0-.10215.63846Zm-.189-.10726H26.03912v.56694h.52608a.32174.32174,0,0,1-.10215.11747.69376.69376,0,0,1-.15323.0664.897.897,0,0,1-.15833.02044.5746.5746,0,0,1-.20431-.03576.46494.46494,0,0,1-.17876-.10726.55775.55775,0,0,1-.12769-.19409.83933.83933,0,0,1-.046-.29624.69634.69634,0,0,1,.05618-.286.4902.4902,0,0,1,.15323-.19408.46459.46459,0,0,1,.1992-.10216.55668.55668,0,0,1,.22473-.01021.51614.51614,0,0,1,.20431.08683.44068.44068,0,0,1,.15322.17876H27.883a1.70383,1.70383,0,0,0-.17366-.55162,1.76737,1.76737,0,0,0-.31667-.42393,1.81066,1.81066,0,0,0-.41883-.29113,1.87479,1.87479,0,0,0-.48522-.16345,2.15147,2.15147,0,0,0-.51076-.03575,2.39288,2.39288,0,0,0-.50565.097,1.9017,1.9017,0,0,0-.45458.22985,1.62726,1.62726,0,0,0-.37286.35242,1.75866,1.75866,0,0,0-.25538.48522,2.14858,2.14858,0,0,0-.09194.618,2.02446,2.02446,0,0,0,.10726.65888,1.60752,1.60752,0,0,0,.71507.85808,1.83175,1.83175,0,0,0,.51076.19919,1.946,1.946,0,0,0,1.09814-.046A1.83776,1.83776,0,0,0,27.219,6.374a1.601,1.601,0,0,0,.38818-.39839,1.642,1.642,0,0,0,.24516-.54141,1.79927,1.79927,0,0,0,.03576-.20941c.0051-.0664.01021-.1328.01021-.1992v-.2043ZM22.4025,4.71912V4.26455h.18387a.42629.42629,0,0,1,.24006.05618.201.201,0,0,1,.07662.17366.195.195,0,0,1-.07662.17366.47949.47949,0,0,1-.24006.05107Zm.10726,1.01131.429.89894h1.32287V6.52211l-.54651-1.04195a1.21353,1.21353,0,0,0,.26049-.22474,1.04878,1.04878,0,0,0,.17365-.32688,1.39148,1.39148,0,0,0,.06129-.43415,1.31178,1.31178,0,0,0-.09193-.51587.94071.94071,0,0,0-.25027-.35242,1.227,1.227,0,0,0-.36775-.22474,2.06839,2.06839,0,0,0-.44947-.11237,3.18757,3.18757,0,0,0-.49544-.03575H21.10006V6.62937h1.31776V5.73043Zm-4.367.89894h2.707v-.996H19.45541V5.41376H20.7936V4.474H19.45541V4.24412h1.39438V3.25324h-2.707Zm-7.28856-.35243a2.61255,2.61255,0,0,1,.91426-1.49653,2.823,2.823,0,0,1,1.72127-.52608c.09193.02043-.86319-1.40459-2.40569-.09194.63335-.41371.97045-.40861,1.11346-.36774.143.03575.17877.08172.02554.14812a2.10093,2.10093,0,0,0-1.139,1.11346,2.35426,2.35426,0,0,0-.22984,1.22071Z" transform="translate(-8.46498 -1.98215)"></path>

						    <path class="cls-2" d="M28.40905,8.64688a.07129.07129,0,0,0-.046.01532.09091.09091,0,0,0-.04086.03575.15791.15791,0,0,0-.01021.05619.14929.14929,0,0,0,.01021.046.13776.13776,0,0,0,.04086.03576c.01022.01021.03065.01021.046.01532a.14833.14833,0,0,0,.05619-.01532.13776.13776,0,0,0,.04086-.03576.14929.14929,0,0,0,.01021-.046A.15791.15791,0,0,0,28.5061,8.698a.12538.12538,0,0,0-.097-.05107Zm-.08172-.97556v.90916H28.501V7.67132Zm-1.11346-.01021V8.841h.41883a.66537.66537,0,0,0,.20941-.03576.52582.52582,0,0,0,.15833-.08683.53575.53575,0,0,0,.18388-.29113.64231.64231,0,0,0,.02554-.16855.64878.64878,0,0,0-.02554-.17366.57829.57829,0,0,0-.0664-.16344.48847.48847,0,0,0-.11748-.1328.4452.4452,0,0,0-.15833-.09194.54646.54646,0,0,0-.20941-.03575Zm.16855,1.0113V7.82966h.25028a.44968.44968,0,0,1,.14812.02554.31207.31207,0,0,1,.11236.0664.29629.29629,0,0,1,.08172.097A.44657.44657,0,0,1,28.026,8.131a.54519.54519,0,0,1,.01532.12769.50348.50348,0,0,1-.01532.12258.547.547,0,0,1-.05108.11237.27962.27962,0,0,1-.08172.09193.39644.39644,0,0,1-.11236.0613.44994.44994,0,0,1-.14812.02553ZM25.845,8.25359a.59475.59475,0,0,0,.03065.19409.529.529,0,0,0,.08683.16855.60491.60491,0,0,0,.12769.12769.65821.65821,0,0,0,.16855.08683.58613.58613,0,0,0,.189.03065.59475.59475,0,0,0,.19409-.03065.65837.65837,0,0,0,.16855-.08683.75478.75478,0,0,0,.12769-.12769.65837.65837,0,0,0,.08683-.16855.59475.59475,0,0,0,.03064-.19409.58612.58612,0,0,0-.03064-.189.65821.65821,0,0,0-.08683-.16855.78563.78563,0,0,0-.12769-.1328.64459.64459,0,0,0-.16855-.08172.59475.59475,0,0,0-.19409-.03065.58613.58613,0,0,0-.189.03065.64444.64444,0,0,0-.16855.08172.62718.62718,0,0,0-.12769.1328.52888.52888,0,0,0-.08683.16855.58613.58613,0,0,0-.03065.189Zm.17366,0a.49035.49035,0,0,1,.03065-.16855.42245.42245,0,0,1,.22984-.22984.47877.47877,0,0,1,.3371,0,.46448.46448,0,0,1,.13791.09193.5183.5183,0,0,1,.097.13791.49035.49035,0,0,1,.03065.16855.44989.44989,0,0,1-.03065.16855.39438.39438,0,0,1-.097.13791.32838.32838,0,0,1-.13791.09193.4151.4151,0,0,1-.3371,0,.40814.40814,0,0,1-.13791-.09193.46416.46416,0,0,1-.09193-.13791.44989.44989,0,0,1-.03065-.16855Zm-1.46078,0a.59475.59475,0,0,0,.03065.19409.529.529,0,0,0,.08683.16855.60491.60491,0,0,0,.12769.12769.65821.65821,0,0,0,.16855.08683.58613.58613,0,0,0,.189.03065.59475.59475,0,0,0,.19409-.03065.65821.65821,0,0,0,.16855-.08683.60491.60491,0,0,0,.12769-.12769.529.529,0,0,0,.08683-.16855.59475.59475,0,0,0,.03065-.19409.58613.58613,0,0,0-.03065-.189.52888.52888,0,0,0-.08683-.16855.62718.62718,0,0,0-.12769-.1328.64444.64444,0,0,0-.16855-.08172.59475.59475,0,0,0-.19409-.03065.58613.58613,0,0,0-.189.03065.64444.64444,0,0,0-.16855.08172.62718.62718,0,0,0-.12769.1328.52888.52888,0,0,0-.08683.16855.58613.58613,0,0,0-.03065.189Zm.17366,0a.49035.49035,0,0,1,.03065-.16855.42245.42245,0,0,1,.22984-.22984.49035.49035,0,0,1,.16855-.03065.44989.44989,0,0,1,.16855.03065.46422.46422,0,0,1,.13791.09193.5183.5183,0,0,1,.097.13791.49035.49035,0,0,1,.03065.16855.44989.44989,0,0,1-.03065.16855.39438.39438,0,0,1-.097.13791.32825.32825,0,0,1-.13791.09193.37.37,0,0,1-.16855.03576.40057.40057,0,0,1-.16855-.03576.40823.40823,0,0,1-.13791-.09193.46435.46435,0,0,1-.09193-.13791.44989.44989,0,0,1-.03065-.16855Zm-.29113-.17366a.68163.68163,0,0,0-.06129-.16344.59265.59265,0,0,0-.10216-.12258.64023.64023,0,0,0-.12258-.08173.66825.66825,0,0,0-.143-.046.62734.62734,0,0,0-.13791-.01022.54177.54177,0,0,0-.34732.10726.60509.60509,0,0,0-.12768.12769.6443.6443,0,0,0-.08173.16855.62629.62629,0,0,0-.03064.1992.61186.61186,0,0,0,.16855.429.51813.51813,0,0,0,.18387.12769.687.687,0,0,0,.235.046.647.647,0,0,0,.1328-.02043.66657.66657,0,0,0,.12769-.05108.96291.96291,0,0,0,.11748-.08172.65763.65763,0,0,0,.097-.10726.60649.60649,0,0,0,.0664-.12769h0a.52139.52139,0,0,0,.02043-.07662.86054.86054,0,0,0,.01022-.12769h-.63846v.17366h.43926a.81259.81259,0,0,1-.0664.11237.43148.43148,0,0,1-.09194.07661.40009.40009,0,0,1-.10726.046.38858.38858,0,0,1-.10726.01532.42348.42348,0,0,1-.16344-.03064.3887.3887,0,0,1-.1328-.09194.48442.48442,0,0,1-.08683-.1379.49739.49739,0,0,1-.03064-.17366.4582.4582,0,0,1,.03064-.17366.48433.48433,0,0,1,.08683-.13791.4757.4757,0,0,1,.1328-.09193.42349.42349,0,0,1,.16344-.03065.49531.49531,0,0,1,.11748.01532.298.298,0,0,1,.11236.04087.27976.27976,0,0,1,.09194.08172.28644.28644,0,0,1,.06129.11747Zm-2.14009-.40861H22.1318V8.841h.71506V8.67241h-.54651Zm-.87851.65378H21.953V8.15655h-.53119V7.82966h.54141V7.66111h-.71V8.841h.71V8.67241h-.54141Zm-.8734,0h.52608V8.15655h-.52608V7.82966h.5414V7.66111h-.71506V8.841h.71506V8.67241h-.5414Zm-.82233,0h.46479V8.17187h-.46479V7.82455h.52609V7.66111h-.69464V8.841h.16855Zm-.81722-.664H18.3062v.15833h.21962v.86319H18.3062V8.841h.60269V8.68263h-.21452V7.81944h.21452Z" transform="translate(-8.46498 -1.98215)"></path>
						</svg>